<svg xmlns="http://www.w3.org/2000/svg" viewBox="0 0 64 64" fill="none">
  <!-- Flame -->
  <ellipse cx="32" cy="54" rx="6" ry="8" fill="#FF6B6B" opacity="0.8"/>
  <ellipse cx="32" cy="52" rx="4" ry="6" fill="#FFD93D" opacity="0.9"/>
  <!-- Rocket body -->
  <path d="M32 6c-8 10-12 22-12 32h24c0-10-4-22-12-32z" fill="url(#rk)"/>
  <!-- Rocket window -->
  <circle cx="32" cy="26" r="5" fill="#FFF" opacity="0.9"/>
  <circle cx="32" cy="26" r="3" fill="#F472B6"/>
  <!-- Fins -->
  <path d="M20 38c-4 2-6 8-6 12l6-4v-8z" fill="#EC4899" opacity="0.8"/>
  <path d="M44 38c4 2 6 8 6 12l-6-4v-8z" fill="#EC4899" opacity="0.8"/>
  <!-- Nose cone highlight -->
  <path d="M32 6c-3 4-5 9-7 14h5c0-5 1-9 2-14z" fill="#FFF" opacity="0.2"/>
  <defs>
    <linearGradient id="rk" x1="26" y1="6" x2="38" y2="42">
      <stop offset="0%" stop-color="#F472B6"/>
      <stop offset="100%" stop-color="#EC4899"/>
    </linearGradient>
  </defs>
</svg>
